<svg id="Layer_2" data-name="Layer 2" xmlns="http://www.w3.org/2000/svg" width="1038.688" height="312.672" viewBox="0 0 1038.688 312.672">
  <g id="Layer_1" data-name="Layer 1">
    <path id="Path_1234" data-name="Path 1234" d="M839.591,265.031a46.137,46.137,0,0,1-6.013,23.569,40.486,40.486,0,0,1-17.217,16.037q-11.2,5.674-26.628,5.674H755.8v48.128H727.17V221.77h61.4q24.538,0,37.781,11.3T839.591,265.031Zm-28.809.484q0-21.521-25.411-21.521H755.784V288.31h30.361q11.832,0,18.235-5.869T810.782,265.515Z" transform="translate(-436.156 -129.988)" fill="#fff"/>
    <path id="Path_1235" data-name="Path 1235" d="M1149.874,348.093q0,25.506-14.162,40.012t-39.188,14.485q-24.538,0-38.489-14.551t-13.984-39.946q0-25.316,13.968-39.818t39.089-14.485q25.709,0,39.238,14.017T1149.874,348.093Zm-28.519,0q0-18.723-6.109-27.162t-17.75-8.43q-24.832,0-24.832,35.592,0,17.556,6.063,26.723t17.506,9.167Q1121.355,383.97,1121.355,348.093Z" transform="translate(-621.892 -172.202)" fill="#fff"/>
    <path id="Path_1236" data-name="Path 1236" d="M1362.1,348.135V204.19h27.273V348.135Z" transform="translate(-808.314 -119.684)" fill="#fff"/>
    <path id="Path_1237" data-name="Path 1237" d="M1505.54,224.266V204.19H1532.8v20.076Zm0,123.868V243.184H1532.8V348.135Z" transform="translate(-892.389 -119.684)" fill="#fff"/>
    <path id="Path_1238" data-name="Path 1238" d="M1659.635,370.209q-12.031,0-18.529-6.547t-6.5-19.836V281.94H1621.32V263.511h14.646l8.534-24.641h17.072v24.641h19.886V281.94h-19.886v54.514q0,7.661,2.9,11.3t9.018,3.638a43.886,43.886,0,0,0,9.1-1.357V366.91A73.733,73.733,0,0,1,1659.635,370.209Z" transform="translate(-960.253 -140.011)" fill="#fff"/>
    <path id="Path_1239" data-name="Path 1239" d="M1831.748,402.582q-15.226,0-23.764-8.277t-8.534-23.329q0-16.294,10.62-24.832t30.8-8.728l22.6-.389v-5.351q0-10.28-3.588-15.276t-11.737-5q-7.565,0-11.1,3.447t-4.416,11.394L1804.2,324.9q2.62-15.313,14.017-23.23t31.085-7.9q19.865,0,30.655,9.8t10.76,27.84v38.2q0,8.828,1.991,12.172t6.622,3.348a30.491,30.491,0,0,0,6.013-.584v14.746q-2.421.584-4.362,1.068c-1.3.323-2.587.579-3.882.774s-2.665.356-4.139.484-3.154.194-5.09.194q-10.284,0-15.18-5.045t-5.869-14.837h-.584Q1854.833,402.582,1831.748,402.582Zm31.718-50.536-13.968.195q-9.519.385-13.479,2.069a12.591,12.591,0,0,0-6.063,5.186,18.178,18.178,0,0,0-2.069,9.312q0,7.474,3.443,11.108a12.049,12.049,0,0,0,9.167,3.638,20.747,20.747,0,0,0,11.687-3.493,23.776,23.776,0,0,0,8.277-9.651,29.384,29.384,0,0,0,3-13.045Z" transform="translate(-1064.662 -172.19)" fill="#fff"/>
    <path id="Path_1240" data-name="Path 1240" d="M2094.834,400.471V320.157q0-8.637-.24-14.406t-.534-10.231h25.995q.294,1.742.774,10.62t.489,11.787h.385q3.981-11.062,7.081-15.569a20.027,20.027,0,0,1,7.375-6.692,23.259,23.259,0,0,1,10.669-2.185,20.613,20.613,0,0,1,8.438,1.457v22.8a54.711,54.711,0,0,0-11.642-1.457,18.182,18.182,0,0,0-15.859,8.244q-5.678,8.244-5.674,24.447v51.5Z" transform="translate(-1237.344 -172.02)" fill="#fff"/>
    <path id="Path_1241" data-name="Path 1241" d="M2383.845,348.093q0,25.506-14.162,40.012t-39.188,14.485q-24.542,0-38.51-14.551T2278,348.093q0-25.316,13.968-39.818t39.093-14.485q25.7,0,39.234,14.017T2383.845,348.093Zm-28.519,0q0-18.723-6.113-27.162t-17.75-8.43q-24.831,0-24.832,35.592,0,17.556,6.063,26.723t17.51,9.167Q2355.322,383.97,2355.326,348.093Z" transform="translate(-1345.159 -172.202)" fill="#fff"/>
    <path id="Path_1242" data-name="Path 1242" d="M385.143,540.729l-10.76-.414-2.9-8.691q.414-1.655-.828-1.242v1.655l-2.9,8.277-10.76.414,8.691,5.794-3.311,9.933.414.414,8.691-6.208,8.277,6.208h.414l-3.311-8.691v-1.242Z" transform="translate(-209.252 -310.83)" fill="none"/>
    <path id="Path_1243" data-name="Path 1243" d="M92.38,412.456l8.691-5.794,8.691,5.794-3.311-9.519,8.691-6.622-10.76-.414-2.9-8.277q.414-1.655-.828-1.242l-2.9,9.1v.414H87.414l-.414.828,8.277,5.794Z" transform="translate(-50.994 -226.426)" fill="none"/>
    <path id="Path_1244" data-name="Path 1244" d="M362.966,412.573l8.691-5.794,8.277,5.38.414.414-2.9-10.347,7.863-5.38c.55.277.691,0,.414-.828H376.21l-.414.414-1.242-1.242-2.483-8.691-3.725,9.933-1.655-.414h-8.277l-.414.828,8.277,6.208Z" transform="translate(-209.838 -226.543)" fill="none"/>
    <path id="Path_1245" data-name="Path 1245" d="M174.143,459.474l-10.76,32.281,28.143-19.865,2.483,1.242,25.659,18.624L210.148,463.2l-.828-4.552,27.729-19.451-34.764-.414-9.933-31.04-.828-1.242-10.76,32.281L146,439.195Z" transform="translate(-85.576 -238.266)" fill="none"/>
    <path id="Path_1246" data-name="Path 1246" d="M95.277,548.179l-2.9,7.863.414.828,8.691-6.208,7.449,5.38.828.828-3.311-9.933,8.691-6.208-10.76-.414-2.9-8.691q.414-1.655-.828-1.242l-2.9,9.933L87,540.729l8.277,6.208Z" transform="translate(-50.994 -310.83)" fill="none"/>
    <path id="Path_1247" data-name="Path 1247" d="M255.269,132.021,349.422.621,349.215,0H285.481l-.828.414L190.5,131.815Z" transform="translate(-111.66)" fill="#fff"/>
    <path id="Path_1248" data-name="Path 1248" d="M24,90.207,0,90l.207,33.523Z" transform="translate(0 -52.753)" fill="#fff"/>
    <path id="Path_1249" data-name="Path 1249" d="M116.709,90.621,116.5,90H52.353L0,163.046V184.36H49.663Z" transform="translate(0 -52.753)" fill="#fff"/>
    <path id="Path_1250" data-name="Path 1250" d="M417.94,243.777l39.731.207-.207-55.043Z" transform="translate(-244.971 -110.745)" fill="#fff"/>
    <path id="Path_1251" data-name="Path 1251" d="M0,434.721l105.741,83.393,2.483-1.242L211.9,434.721V350.5H0Zm170.924,16.761h-.414l-8.277-6.208-8.691,6.208-.414-.414,3.311-9.933-8.691-5.794,10.76-.414,2.9-8.277v-1.655q1.242-.414.828,1.242l2.9,8.691,10.76.414-8.277,6.208v1.242Zm-22.348-76.564h8.277l1.655.414,3.725-9.933,2.483,8.691,1.242,1.242.414-.414h9.519c.277.828.137,1.1-.414.828l-7.863,5.38,2.9,10.346-.414-.414-8.277-5.38-8.691,5.794,3.311-9.519-8.277-6.208Zm-42.628-1.242.828,1.242,9.933,31.039,34.764.414-27.729,19.451.828,4.552,9.519,28.556-25.659-18.624-2.483-1.242L77.806,458.931l10.76-32.281L60.424,406.371l34.764-.414ZM36.42,374.918H46.766V374.5l2.9-9.1q1.242-.414.828,1.242l2.9,8.277,10.76.414-8.691,6.622,3.311,9.519-8.691-5.794-8.691,5.794,2.9-9.933-8.277-5.794Zm10.347,60.01,2.9-9.933q1.242-.414.828,1.242l2.9,8.691,10.76.414-8.691,6.208,3.311,9.933-.828-.828-7.449-5.38L41.8,451.482l-.414-.828,2.9-7.863v-1.242l-8.277-6.208Z" transform="translate(0 -205.442)" fill="#fff"/>
  </g>
</svg>
